# xmcd
#
# Track frame offsets:
#	150
#	7885
#	26112
#	45950
#	62992
#	84187
#	111397
#	131107
#	156487
#	163887
#	180237
#	204330
#	220207
#	232105
#	246617
#	265587
#	291047
#	313280
#
# Disc length: 4415 seconds
#
# Revision: 11
# Processed by: cddbd v1.5.2PL0 Copyright (c) Steve Scherf et al.
# Submitted via: audiograbber 1.80
#
DISCID=05113d12
DTITLE=Raekwon - Only Built 4 Cuban Linx...
DYEAR=1995
DGENRE=Hip Hop
TTITLE0=Striving For Perfection
TTITLE1=Knuckleheadz
TTITLE2=Knowledge God
TTITLE3=Criminology
TTITLE4=Incarcerated Scarfaces
TTITLE5=Rainy Dayz
TTITLE6=Guillotine (Swordz)
TTITLE7=Can It Be All So Simple
TTITLE8=Shark Niggas
TTITLE9=Ice Water
TTITLE10=Glaciers Of Ice
TTITLE11=Verbal Intercourse
TTITLE12=Wisdom Body
TTITLE13=Spot Rusherz
TTITLE14=Ice Cream
TTITLE15=Wu-Gambinos
TTITLE16=Heaven and Hell
TTITLE17=North Star
EXTD=YEAR: 1995
EXTT0=
EXTT1=
EXTT2=
EXTT3=
EXTT4=
EXTT5=
EXTT6=
EXTT7=
EXTT8=
EXTT9=
EXTT10=
EXTT11=
EXTT12=
EXTT13=
EXTT14=
EXTT15=
EXTT16=
EXTT17=
PLAYORDER=
